ffmpeg started on 2016-12-12 at 09:37:27
Report written to "Output/theora/results/ffmpeg/old_town_cross_2160p5012000k.log"
Command line:
Tools/ffmpeg/ffmpeg -benchmark -y -i Input/y4m/old_town_cross_2160p50.y4m -c:v libtheora -b:v 12000k -an Output/theora/encoded/old_town_cross_2160p5012000k.mkv
ffmpeg version N-82227-gdb23fde Copyright (c) 2000-2016 the FFmpeg developers
  built with gcc 5.4.0 (Ubuntu 5.4.0-6ubuntu1~16.04.2) 20160609
  configuration: --prefix=/home/jaroslav/ffmpeg_build --pkg-config-flags=--static --extra-cflags=-I/home/jaroslav/ffmpeg_build/include --extra-ldflags=-L/home/jaroslav/ffmpeg_build/lib --bindir=/home/jaroslav/bin --enable-gpl --enable-libass --enable-libfdk-aac --enable-libfreetype --enable-libmp3lame --enable-libopus --enable-libtheora --enable-libvorbis --enable-libvpx --enable-libx264 --enable-libx265 --enable-nvenc --enable-libmfx --enable-libxvid --enable-libgsm --enable-libopencore-amrnb --enable-version3 --enable-nonfree
  libavutil      55. 35.100 / 55. 35.100
  libavcodec     57. 66.101 / 57. 66.101
  libavformat    57. 57.100 / 57. 57.100
  libavdevice    57.  2.100 / 57.  2.100
  libavfilter     6. 66.100 /  6. 66.100
  libswscale      4.  3.100 /  4.  3.100
  libswresample   2.  4.100 /  2.  4.100
  libpostproc    54.  2.100 / 54.  2.100
Input #0, yuv4mpegpipe, from 'Input/y4m/old_town_cross_2160p50.y4m':
  Duration: 00:00:10.00, start: 0.000000, bitrate: 4976642 kb/s
    Stream #0:0: Video: rawvideo (I420 / 0x30323449), yuv420p(progressive), 3840x2160, SAR 1:1 DAR 16:9, 50 fps, 50 tbr, 50 tbn, 50 tbc
Output #0, matroska, to 'Output/theora/encoded/old_town_cross_2160p5012000k.mkv':
  Metadata:
    encoder         : Lavf57.57.100
    Stream #0:0: Video: theora (libtheora) (theo / 0x6F656874), yuv420p, 3840x2160 [SAR 1:1 DAR 16:9], q=2-31, 12000 kb/s, 50 fps, 1k tbn, 50 tbc
    Metadata:
      encoder         : Lavc57.66.101 libtheora
Stream mapping:
  Stream #0:0 -> #0:0 (rawvideo (native) -> theora (libtheora))
Press [q] to stop, [?] for help
frame=    3 fps=0.0 q=-0.0 size=       4kB time=00:00:00.04 bitrate= 779.5kbits/s speed=0.0569x    frame=    4 fps=3.1 q=-0.0 size=       4kB time=00:00:00.06 bitrate= 523.9kbits/s speed=0.048x    frame=    6 fps=3.1 q=-0.0 size=       4kB time=00:00:00.10 bitrate= 316.4kbits/s speed=0.0525x    frame=    8 fps=3.1 q=-0.0 size=       4kB time=00:00:00.14 bitrate= 226.7kbits/s speed=0.0547x    frame=   10 fps=3.1 q=-0.0 size=       4kB time=00:00:00.18 bitrate= 176.6kbits/s speed=0.056x    frame=   12 fps=3.1 q=-0.0 size=       4kB time=00:00:00.22 bitrate= 144.6kbits/s speed=0.0569x    frame=   14 fps=3.2 q=-0.0 size=     293kB time=00:00:00.26 bitrate=9190.8kbits/s speed=0.0591x    frame=   16 fps=3.2 q=-0.0 size=     293kB time=00:00:00.30 bitrate=7969.5kbits/s speed=0.0595x    frame=   18 fps=3.1 q=-0.0 size=     293kB time=00:00:00.34 bitrate=7034.6kbits/s speed=0.0595x    frame=   20 fps=3.1 q=-0.0 size=     293kB time=00:00:00.38 bitrate=6296.1kbits/s speed=0.0596x    frame=   22 fps=3.1 q=-0.0 size=     293kB time=00:00:00.42 bitrate=5697.9kbits/s speed=0.0597x    frame=   24 fps=3.1 q=-0.0 size=     293kB time=00:00:00.46 bitrate=5203.5kbits/s speed=0.0597x    frame=   26 fps=3.1 q=-0.0 size=     672kB time=00:00:00.50 bitrate=10982.8kbits/s speed=0.0606x    frame=   28 fps=3.1 q=-0.0 size=     672kB time=00:00:00.54 bitrate=10170.8kbits/s speed=0.0607x    frame=   30 fps=3.1 q=-0.0 size=     672kB time=00:00:00.58 bitrate=9470.6kbits/s speed=0.0607x    frame=   32 fps=3.1 q=-0.0 size=     672kB time=00:00:00.62 bitrate=8860.5kbits/s speed=0.0607x    frame=   34 fps=3.1 q=-0.0 size=     672kB time=00:00:00.66 bitrate=8324.4kbits/s speed=0.0606x    frame=   36 fps=3.1 q=-0.0 size=     672kB time=00:00:00.70 bitrate=7849.4kbits/s speed=0.0606x    frame=   38 fps=3.1 q=-0.0 size=    1044kB time=00:00:00.74 bitrate=11542.7kbits/s speed=0.0613x    frame=   40 fps=3.1 q=-0.0 size=    1044kB time=00:00:00.78 bitrate=10951.6kbits/s speed=0.0613x    frame=   42 fps=3.1 q=-0.0 size=    1044kB time=00:00:00.82 bitrate=10418.0kbits/s speed=0.0613x    frame=   44 fps=3.1 q=-0.0 size=    1044kB time=00:00:00.86 bitrate=9934.0kbits/s speed=0.0612x    frame=   46 fps=3.1 q=-0.0 size=    1044kB time=00:00:00.90 bitrate=9493.0kbits/s speed=0.0612x    frame=   48 fps=3.1 q=-0.0 size=    1044kB time=00:00:00.94 bitrate=9089.4kbits/s speed=0.0612x    frame=   50 fps=3.1 q=-0.0 size=    1374kB time=00:00:00.98 bitrate=11473.2kbits/s speed=0.0617x    frame=   52 fps=3.1 q=-0.0 size=    1374kB time=00:00:01.02 bitrate=11023.7kbits/s speed=0.0617x    frame=   54 fps=3.1 q=-0.0 size=    1374kB time=00:00:01.06 bitrate=10608.1kbits/s speed=0.0616x    frame=   56 fps=3.1 q=-0.0 size=    1374kB time=00:00:01.10 bitrate=10222.7kbits/s speed=0.0616x    frame=   58 fps=3.1 q=-0.0 size=    1374kB time=00:00:01.14 bitrate=9864.3kbits/s speed=0.0616x    frame=   60 fps=3.1 q=-0.0 size=    1374kB time=00:00:01.18 bitrate=9530.2kbits/s speed=0.0615x    frame=   62 fps=3.1 q=-0.0 size=    1742kB time=00:00:01.22 bitrate=11688.9kbits/s speed=0.0619x    frame=   64 fps=3.1 q=-0.0 size=    1742kB time=00:00:01.26 bitrate=11318.1kbits/s speed=0.0619x    frame=   66 fps=3.1 q=-0.0 size=    1742kB time=00:00:01.30 bitrate=10970.1kbits/s speed=0.0618x    frame=   68 fps=3.1 q=-0.0 size=    1742kB time=00:00:01.34 bitrate=10642.9kbits/s speed=0.0618x    frame=   70 fps=3.1 q=-0.0 size=    1742kB time=00:00:01.38 bitrate=10334.6kbits/s speed=0.0618x    frame=   72 fps=3.1 q=-0.0 size=    1742kB time=00:00:01.42 bitrate=10043.7kbits/s speed=0.0617x    frame=   74 fps=3.1 q=-0.0 size=    2114kB time=00:00:01.46 bitrate=11851.6kbits/s speed=0.062x    frame=   76 fps=3.1 q=-0.0 size=    2114kB time=00:00:01.50 bitrate=11535.8kbits/s speed=0.062x    frame=   78 fps=3.1 q=-0.0 size=    2114kB time=00:00:01.54 bitrate=11236.3kbits/s speed=0.062x    frame=   80 fps=3.1 q=-0.0 size=    2114kB time=00:00:01.58 bitrate=10952.1kbits/s speed=0.062x    frame=   82 fps=3.1 q=-0.0 size=    2114kB time=00:00:01.62 bitrate=10681.8kbits/s speed=0.0619x    frame=   84 fps=3.1 q=-0.0 size=    2114kB time=00:00:01.66 bitrate=10424.6kbits/s speed=0.0619x    frame=   86 fps=3.1 q=-0.0 size=    2448kB time=00:00:01.70 bitrate=11791.4kbits/s speed=0.0622x    frame=   88 fps=3.1 q=-0.0 size=    2448kB time=00:00:01.74 bitrate=11520.5kbits/s speed=0.0622x    frame=   90 fps=3.1 q=-0.0 size=    2448kB time=00:00:01.78 bitrate=11261.7kbits/s speed=0.0622x    frame=   91 fps=3.1 q=-0.0 size=    2448kB time=00:00:01.80 bitrate=11136.7kbits/s speed=0.0614x    frame=   93 fps=3.1 q=-0.0 size=    2448kB time=00:00:01.84 bitrate=10894.7kbits/s speed=0.0614x    frame=   95 fps=3.1 q=-0.0 size=    2448kB time=00:00:01.88 bitrate=10663.0kbits/s speed=0.0614x    frame=   97 fps=3.1 q=-0.0 size=    2817kB time=00:00:01.92 bitrate=12014.1kbits/s speed=0.0613x    frame=   99 fps=3.1 q=-0.0 size=    2817kB time=00:00:01.96 bitrate=11769.0kbits/s speed=0.0616x    frame=  101 fps=3.1 q=-0.0 size=    2817kB time=00:00:02.00 bitrate=11533.7kbits/s speed=0.0615x    frame=  103 fps=3.1 q=-0.0 size=    2817kB time=00:00:02.04 bitrate=11307.7kbits/s speed=0.0615x    frame=  105 fps=3.1 q=-0.0 size=    2817kB time=00:00:02.08 bitrate=11090.3kbits/s speed=0.0615x    frame=  107 fps=3.1 q=-0.0 size=    2817kB time=00:00:02.12 bitrate=10881.2kbits/s speed=0.0615x    frame=  109 fps=3.1 q=-0.0 size=    3172kB time=00:00:02.16 bitrate=12023.1kbits/s speed=0.0615x    frame=  111 fps=3.1 q=-0.0 size=    3172kB time=00:00:02.20 bitrate=11804.6kbits/s speed=0.0617x    frame=  113 fps=3.1 q=-0.0 size=    3172kB time=00:00:02.24 bitrate=11593.9kbits/s speed=0.0617x    frame=  115 fps=3.1 q=-0.0 size=    3172kB time=00:00:02.28 bitrate=11390.6kbits/s speed=0.0617x    frame=  117 fps=3.1 q=-0.0 size=    3172kB time=00:00:02.32 bitrate=11194.2kbits/s speed=0.0617x    frame=  119 fps=3.1 q=-0.0 size=    3172kB time=00:00:02.36 bitrate=11004.6kbits/s speed=0.0617x    frame=  121 fps=3.1 q=-0.0 size=    3522kB time=00:00:02.40 bitrate=12017.4kbits/s speed=0.0617x    frame=  123 fps=3.1 q=-0.0 size=    3522kB time=00:00:02.44 bitrate=11820.5kbits/s speed=0.0619x    frame=  125 fps=3.1 q=-0.0 size=    3522kB time=00:00:02.48 bitrate=11629.9kbits/s speed=0.0619x    frame=  127 fps=3.1 q=-0.0 size=    3522kB time=00:00:02.52 bitrate=11445.4kbits/s speed=0.0619x    frame=  129 fps=3.1 q=-0.0 size=    3522kB time=00:00:02.56 bitrate=11266.6kbits/s speed=0.0619x    frame=  131 fps=3.1 q=-0.0 size=    3522kB time=00:00:02.60 bitrate=11093.4kbits/s speed=0.0618x    frame=  133 fps=3.1 q=-0.0 size=    3881kB time=00:00:02.64 bitrate=12037.4kbits/s speed=0.0618x    frame=  135 fps=3.1 q=-0.0 size=    3881kB time=00:00:02.68 bitrate=11857.8kbits/s speed=0.062x    frame=  137 fps=3.1 q=-0.0 size=    3881kB time=00:00:02.72 bitrate=11683.5kbits/s speed=0.062x    frame=  139 fps=3.1 q=-0.0 size=    3881kB time=00:00:02.76 bitrate=11514.2kbits/s speed=0.062x    frame=  141 fps=3.1 q=-0.0 size=    3881kB time=00:00:02.80 bitrate=11349.8kbits/s speed=0.062x    frame=  143 fps=3.1 q=-0.0 size=    3881kB time=00:00:02.84 bitrate=11190.0kbits/s speed=0.0619x    frame=  145 fps=3.1 q=-0.0 size=    4247kB time=00:00:02.88 bitrate=12075.5kbits/s speed=0.0619x    frame=  147 fps=3.1 q=-0.0 size=    4247kB time=00:00:02.92 bitrate=11910.2kbits/s speed=0.0621x    frame=  149 fps=3.1 q=-0.0 size=    4247kB time=00:00:02.96 bitrate=11749.3kbits/s speed=0.0621x    frame=  151 fps=3.1 q=-0.0 size=    4247kB time=00:00:03.00 bitrate=11592.7kbits/s speed=0.0621x    frame=  153 fps=3.1 q=-0.0 size=    4247kB time=00:00:03.04 bitrate=11440.2kbits/s speed=0.0621x    frame=  155 fps=3.1 q=-0.0 size=    4247kB time=00:00:03.08 bitrate=11291.7kbits/s speed=0.0621x    frame=  157 fps=3.1 q=-0.0 size=    4584kB time=00:00:03.12 bitrate=12031.5kbits/s speed=0.0621x    frame=  159 fps=3.1 q=-0.0 size=    4584kB time=00:00:03.16 bitrate=11879.2kbits/s speed=0.0622x    frame=  161 fps=3.1 q=-0.0 size=    4584kB time=00:00:03.20 bitrate=11730.8kbits/s speed=0.0622x    frame=  163 fps=3.1 q=-0.0 size=    4584kB time=00:00:03.24 bitrate=11586.0kbits/s speed=0.0622x    frame=  165 fps=3.1 q=-0.0 size=    4584kB time=00:00:03.28 bitrate=11444.8kbits/s speed=0.0622x    frame=  167 fps=3.1 q=-0.0 size=    4584kB time=00:00:03.32 bitrate=11306.9kbits/s speed=0.0622x    frame=  169 fps=3.1 q=-0.0 size=    4925kB time=00:00:03.36 bitrate=12004.9kbits/s speed=0.0622x    frame=  171 fps=3.1 q=-0.0 size=    4925kB time=00:00:03.40 bitrate=11863.7kbits/s speed=0.0623x    frame=  173 fps=3.1 q=-0.0 size=    4925kB time=00:00:03.44 bitrate=11725.8kbits/s speed=0.0623x    frame=  175 fps=3.1 q=-0.0 size=    4925kB time=00:00:03.48 bitrate=11591.0kbits/s speed=0.0623x    frame=  177 fps=3.1 q=-0.0 size=    4925kB time=00:00:03.52 bitrate=11459.4kbits/s speed=0.0623x    frame=  179 fps=3.1 q=-0.0 size=    4925kB time=00:00:03.56 bitrate=11330.6kbits/s speed=0.0623x    frame=  181 fps=3.1 q=-0.0 size=    5286kB time=00:00:03.60 bitrate=12026.1kbits/s speed=0.0622x    frame=  183 fps=3.1 q=-0.0 size=    5286kB time=00:00:03.64 bitrate=11894.0kbits/s speed=0.0624x    frame=  185 fps=3.1 q=-0.0 size=    5286kB time=00:00:03.68 bitrate=11764.7kbits/s speed=0.0624x    frame=  187 fps=3.1 q=-0.0 size=    5286kB time=00:00:03.72 bitrate=11638.2kbits/s speed=0.0624x    frame=  189 fps=3.1 q=-0.0 size=    5286kB time=00:00:03.76 bitrate=11514.5kbits/s speed=0.0623x    frame=  191 fps=3.1 q=-0.0 size=    5286kB time=00:00:03.80 bitrate=11393.3kbits/s speed=0.0623x    frame=  193 fps=3.1 q=-0.0 size=    5637kB time=00:00:03.84 bitrate=12022.0kbits/s speed=0.0623x    frame=  195 fps=3.1 q=-0.0 size=    5637kB time=00:00:03.88 bitrate=11898.1kbits/s speed=0.0624x    frame=  197 fps=3.1 q=-0.0 size=    5637kB time=00:00:03.92 bitrate=11776.7kbits/s speed=0.0624x    frame=  199 fps=3.1 q=-0.0 size=    5637kB time=00:00:03.96 bitrate=11657.8kbits/s speed=0.0624x    frame=  201 fps=3.1 q=-0.0 size=    5637kB time=00:00:04.00 bitrate=11541.2kbits/s speed=0.0624x    frame=  203 fps=3.1 q=-0.0 size=    5637kB time=00:00:04.04 bitrate=11427.0kbits/s speed=0.0624x    frame=  205 fps=3.1 q=-0.0 size=    5998kB time=00:00:04.08 bitrate=12041.0kbits/s speed=0.0624x    frame=  207 fps=3.1 q=-0.0 size=    5998kB time=00:00:04.12 bitrate=11924.2kbits/s speed=0.0625x    frame=  209 fps=3.1 q=-0.0 size=    5998kB time=00:00:04.16 bitrate=11809.5kbits/s speed=0.0625x    frame=  211 fps=3.1 q=-0.0 size=    5998kB time=00:00:04.20 bitrate=11697.1kbits/s speed=0.0625x    frame=  213 fps=3.1 q=-0.0 size=    5998kB time=00:00:04.24 bitrate=11586.8kbits/s speed=0.0624x    frame=  215 fps=3.1 q=-0.0 size=    5998kB time=00:00:04.28 bitrate=11478.5kbits/s speed=0.0624x    frame=  217 fps=3.1 q=-0.0 size=    6354kB time=00:00:04.32 bitrate=12046.4kbits/s speed=0.0624x    frame=  219 fps=3.1 q=-0.0 size=    6354kB time=00:00:04.36 bitrate=11935.9kbits/s speed=0.0625x    frame=  221 fps=3.1 q=-0.0 size=    6354kB time=00:00:04.40 bitrate=11827.4kbits/s speed=0.0625x    frame=  223 fps=3.1 q=-0.0 size=    6354kB time=00:00:04.44 bitrate=11720.9kbits/s speed=0.0625x    frame=  225 fps=3.1 q=-0.0 size=    6354kB time=00:00:04.48 bitrate=11616.3kbits/s speed=0.0625x    frame=  227 fps=3.1 q=-0.0 size=    6354kB time=00:00:04.52 bitrate=11513.5kbits/s speed=0.0625x    frame=  229 fps=3.1 q=-0.0 size=    6706kB time=00:00:04.56 bitrate=12044.5kbits/s speed=0.0624x    frame=  231 fps=3.1 q=-0.0 size=    6706kB time=00:00:04.60 bitrate=11939.8kbits/s speed=0.0625x    frame=  233 fps=3.1 q=-0.0 size=    6706kB time=00:00:04.64 bitrate=11836.9kbits/s speed=0.0625x    frame=  235 fps=3.1 q=-0.0 size=    6706kB time=00:00:04.68 bitrate=11735.8kbits/s speed=0.0625x    frame=  237 fps=3.1 q=-0.0 size=    6706kB time=00:00:04.72 bitrate=11636.3kbits/s speed=0.0625x    frame=  239 fps=3.1 q=-0.0 size=    6706kB time=00:00:04.76 bitrate=11538.6kbits/s speed=0.0625x    frame=  241 fps=3.1 q=-0.0 size=    7061kB time=00:00:04.80 bitrate=12048.7kbits/s speed=0.0625x    frame=  243 fps=3.1 q=-0.0 size=    7061kB time=00:00:04.84 bitrate=11949.1kbits/s speed=0.0626x    frame=  245 fps=3.1 q=-0.0 size=    7061kB time=00:00:04.88 bitrate=11851.2kbits/s speed=0.0625x    frame=  247 fps=3.1 q=-0.0 size=    7061kB time=00:00:04.92 bitrate=11754.8kbits/s speed=0.0625x    frame=  249 fps=3.1 q=-0.0 size=    7061kB time=00:00:04.96 bitrate=11660.1kbits/s speed=0.0625x    frame=  250 fps=3.1 q=-0.0 size=    7061kB time=00:00:04.98 bitrate=11613.3kbits/s speed=0.0622x    frame=  252 fps=3.1 q=-0.0 size=    7061kB time=00:00:05.02 bitrate=11520.7kbits/s speed=0.0622x    frame=  254 fps=3.1 q=-0.0 size=    7416kB time=00:00:05.06 bitrate=12004.3kbits/s speed=0.0623x    frame=  256 fps=3.1 q=-0.0 size=    7416kB time=00:00:05.10 bitrate=11910.1kbits/s speed=0.0623x    frame=  258 fps=3.1 q=-0.0 size=    7416kB time=00:00:05.14 bitrate=11817.5kbits/s speed=0.0623x    frame=  260 fps=3.1 q=-0.0 size=    7416kB time=00:00:05.18 bitrate=11726.2kbits/s speed=0.0623x    frame=  262 fps=3.1 q=-0.0 size=    7416kB time=00:00:05.22 bitrate=11636.4kbits/s speed=0.0623x    frame=  264 fps=3.1 q=-0.0 size=    7416kB time=00:00:05.26 bitrate=11547.9kbits/s speed=0.0623x    frame=  266 fps=3.1 q=-0.0 size=    7749kB time=00:00:05.30 bitrate=11975.7kbits/s speed=0.0624x    frame=  268 fps=3.1 q=-0.0 size=    7749kB time=00:00:05.34 bitrate=11886.0kbits/s speed=0.0624x    frame=  270 fps=3.1 q=-0.0 size=    7749kB time=00:00:05.38 bitrate=11797.6kbits/s speed=0.0624x    frame=  272 fps=3.1 q=-0.0 size=    7749kB time=00:00:05.42 bitrate=11710.6kbits/s speed=0.0623x    frame=  274 fps=3.1 q=-0.0 size=    7749kB time=00:00:05.46 bitrate=11624.8kbits/s speed=0.0623x    frame=  276 fps=3.1 q=-0.0 size=    7749kB time=00:00:05.50 bitrate=11540.3kbits/s speed=0.0623x    frame=  278 fps=3.1 q=-0.0 size=    8130kB time=00:00:05.54 bitrate=12020.1kbits/s speed=0.0624x    frame=  280 fps=3.1 q=-0.0 size=    8130kB time=00:00:05.58 bitrate=11934.0kbits/s speed=0.0624x    frame=  282 fps=3.1 q=-0.0 size=    8130kB time=00:00:05.62 bitrate=11849.1kbits/s speed=0.0624x    frame=  284 fps=3.1 q=-0.0 size=    8130kB time=00:00:05.66 bitrate=11765.3kbits/s speed=0.0624x    frame=  286 fps=3.1 q=-0.0 size=    8130kB time=00:00:05.70 bitrate=11682.8kbits/s speed=0.0623x    frame=  288 fps=3.1 q=-0.0 size=    8130kB time=00:00:05.74 bitrate=11601.4kbits/s speed=0.0623x    frame=  290 fps=3.1 q=-0.0 size=    8489kB time=00:00:05.78 bitrate=12028.8kbits/s speed=0.0624x    frame=  292 fps=3.1 q=-0.0 size=    8489kB time=00:00:05.82 bitrate=11946.1kbits/s speed=0.0624x    frame=  294 fps=3.1 q=-0.0 size=    8489kB time=00:00:05.86 bitrate=11864.6kbits/s speed=0.0624x    frame=  296 fps=3.1 q=-0.0 size=    8489kB time=00:00:05.90 bitrate=11784.2kbits/s speed=0.0624x    frame=  298 fps=3.1 q=-0.0 size=    8489kB time=00:00:05.94 bitrate=11704.8kbits/s speed=0.0624x    frame=  300 fps=3.1 q=-0.0 size=    8489kB time=00:00:05.98 bitrate=11626.6kbits/s speed=0.0624x    frame=  302 fps=3.1 q=-0.0 size=    8817kB time=00:00:06.02 bitrate=11996.0kbits/s speed=0.0624x    frame=  304 fps=3.1 q=-0.0 size=    8817kB time=00:00:06.06 bitrate=11916.8kbits/s speed=0.0624x    frame=  306 fps=3.1 q=-0.0 size=    8817kB time=00:00:06.10 bitrate=11838.7kbits/s speed=0.0624x    frame=  307 fps=3.1 q=-0.0 size=    8817kB time=00:00:06.12 bitrate=11800.0kbits/s speed=0.0622x    frame=  309 fps=3.1 q=-0.0 size=    8817kB time=00:00:06.16 bitrate=11723.4kbits/s speed=0.0622x    frame=  311 fps=3.1 q=-0.0 size=    8817kB time=00:00:06.20 bitrate=11647.8kbits/s speed=0.0622x    frame=  313 fps=3.1 q=-0.0 size=    9160kB time=00:00:06.24 bitrate=12023.8kbits/s speed=0.0622x    frame=  316 fps=3.1 q=-0.0 size=    9160kB time=00:00:06.30 bitrate=11909.3kbits/s speed=0.0623x    frame=  318 fps=3.1 q=-0.0 size=    9160kB time=00:00:06.34 bitrate=11834.2kbits/s speed=0.0623x    frame=  320 fps=3.1 q=-0.0 size=    9160kB time=00:00:06.38 bitrate=11760.0kbits/s speed=0.0623x    frame=  322 fps=3.1 q=-0.0 size=    9160kB time=00:00:06.42 bitrate=11686.7kbits/s speed=0.0622x    frame=  324 fps=3.1 q=-0.0 size=    9160kB time=00:00:06.46 bitrate=11614.4kbits/s speed=0.0622x    frame=  326 fps=3.1 q=-0.0 size=    9514kB time=00:00:06.50 bitrate=11988.2kbits/s speed=0.0623x    frame=  328 fps=3.1 q=-0.0 size=    9514kB time=00:00:06.54 bitrate=11914.9kbits/s speed=0.0623x    frame=  330 fps=3.1 q=-0.0 size=    9514kB time=00:00:06.58 bitrate=11842.5kbits/s speed=0.0623x    frame=  332 fps=3.1 q=-0.0 size=    9514kB time=00:00:06.62 bitrate=11771.0kbits/s speed=0.0623x    frame=  334 fps=3.1 q=-0.0 size=    9514kB time=00:00:06.66 bitrate=11700.3kbits/s speed=0.0623x    frame=  336 fps=3.1 q=-0.0 size=    9514kB time=00:00:06.70 bitrate=11630.4kbits/s speed=0.0621x    frame=  338 fps=3.1 q=-0.0 size=    9863kB time=00:00:06.74 bitrate=11985.5kbits/s speed=0.0622x    frame=  340 fps=3.1 q=-0.0 size=    9863kB time=00:00:06.78 bitrate=11914.8kbits/s speed=0.0622x    frame=  342 fps=3.1 q=-0.0 size=    9863kB time=00:00:06.82 bitrate=11844.9kbits/s speed=0.0622x    frame=  344 fps=3.1 q=-0.0 size=    9863kB time=00:00:06.86 bitrate=11775.8kbits/s speed=0.0621x    frame=  346 fps=3.1 q=-0.0 size=    9863kB time=00:00:06.90 bitrate=11707.6kbits/s speed=0.0621x    frame=  348 fps=3.1 q=-0.0 size=    9863kB time=00:00:06.94 bitrate=11640.1kbits/s speed=0.0621x    frame=  350 fps=3.1 q=-0.0 size=   10218kB time=00:00:06.98 bitrate=11990.5kbits/s speed=0.0622x    frame=  352 fps=3.1 q=-0.0 size=   10218kB time=00:00:07.02 bitrate=11922.1kbits/s speed=0.0622x    frame=  354 fps=3.1 q=-0.0 size=   10218kB time=00:00:07.06 bitrate=11854.6kbits/s speed=0.0622x    frame=  356 fps=3.1 q=-0.0 size=   10218kB time=00:00:07.10 bitrate=11787.8kbits/s speed=0.0622x    frame=  358 fps=3.1 q=-0.0 size=   10218kB time=00:00:07.14 bitrate=11721.8kbits/s speed=0.0622x    frame=  360 fps=3.1 q=-0.0 size=   10218kB time=00:00:07.18 bitrate=11656.5kbits/s speed=0.0622x    frame=  362 fps=3.1 q=-0.0 size=   10573kB time=00:00:07.22 bitrate=11995.1kbits/s speed=0.0622x    frame=  364 fps=3.1 q=-0.0 size=   10573kB time=00:00:07.26 bitrate=11929.0kbits/s speed=0.0622x    frame=  366 fps=3.1 q=-0.0 size=   10573kB time=00:00:07.30 bitrate=11863.6kbits/s speed=0.0622x    frame=  368 fps=3.1 q=-0.0 size=   10573kB time=00:00:07.34 bitrate=11799.0kbits/s speed=0.0622x    frame=  370 fps=3.1 q=-0.0 size=   10573kB time=00:00:07.38 bitrate=11735.1kbits/s speed=0.0622x    frame=  372 fps=3.1 q=-0.0 size=   10573kB time=00:00:07.42 bitrate=11671.8kbits/s speed=0.0622x    frame=  374 fps=3.1 q=-0.0 size=   10916kB time=00:00:07.46 bitrate=11985.9kbits/s speed=0.0622x    frame=  376 fps=3.1 q=-0.0 size=   10916kB time=00:00:07.50 bitrate=11922.0kbits/s speed=0.0622x    frame=  378 fps=3.1 q=-0.0 size=   10916kB time=00:00:07.54 bitrate=11858.8kbits/s speed=0.0622x    frame=  380 fps=3.1 q=-0.0 size=   10916kB time=00:00:07.58 bitrate=11796.2kbits/s speed=0.0622x    frame=  382 fps=3.1 q=-0.0 size=   10916kB time=00:00:07.62 bitrate=11734.3kbits/s speed=0.0622x    frame=  384 fps=3.1 q=-0.0 size=   10916kB time=00:00:07.66 bitrate=11673.0kbits/s speed=0.0622x    frame=  386 fps=3.1 q=-0.0 size=   11261kB time=00:00:07.70 bitrate=11979.2kbits/s speed=0.0623x    frame=  388 fps=3.1 q=-0.0 size=   11261kB time=00:00:07.74 bitrate=11917.3kbits/s speed=0.0623x    frame=  390 fps=3.1 q=-0.0 size=   11261kB time=00:00:07.78 bitrate=11856.1kbits/s speed=0.0623x    frame=  392 fps=3.1 q=-0.0 size=   11261kB time=00:00:07.82 bitrate=11795.4kbits/s speed=0.0623x    frame=  394 fps=3.1 q=-0.0 size=   11261kB time=00:00:07.86 bitrate=11735.4kbits/s speed=0.0622x    frame=  396 fps=3.1 q=-0.0 size=   11261kB time=00:00:07.90 bitrate=11676.0kbits/s speed=0.0622x    frame=  398 fps=3.1 q=-0.0 size=   11640kB time=00:00:07.94 bitrate=12007.9kbits/s speed=0.0623x    frame=  400 fps=3.1 q=-0.0 size=   11640kB time=00:00:07.98 bitrate=11947.8kbits/s speed=0.0623x    frame=  402 fps=3.1 q=-0.0 size=   11640kB time=00:00:08.02 bitrate=11888.2kbits/s speed=0.0623x    frame=  404 fps=3.1 q=-0.0 size=   11640kB time=00:00:08.06 bitrate=11829.2kbits/s speed=0.0623x    frame=  406 fps=3.1 q=-0.0 size=   11640kB time=00:00:08.10 bitrate=11770.8kbits/s speed=0.0623x    frame=  408 fps=3.1 q=-0.0 size=   11640kB time=00:00:08.14 bitrate=11712.9kbits/s speed=0.0623x    frame=  410 fps=3.1 q=-0.0 size=   11976kB time=00:00:08.18 bitrate=11992.4kbits/s speed=0.0623x    frame=  412 fps=3.1 q=-0.0 size=   11976kB time=00:00:08.22 bitrate=11934.1kbits/s speed=0.0623x    frame=  414 fps=3.1 q=-0.0 size=   11976kB time=00:00:08.26 bitrate=11876.3kbits/s speed=0.0623x    frame=  416 fps=3.1 q=-0.0 size=   11976kB time=00:00:08.30 bitrate=11819.1kbits/s speed=0.0623x    frame=  418 fps=3.1 q=-0.0 size=   11976kB time=00:00:08.34 bitrate=11762.4kbits/s speed=0.0623x    frame=  420 fps=3.1 q=-0.0 size=   11976kB time=00:00:08.38 bitrate=11706.2kbits/s speed=0.0623x    frame=  422 fps=3.1 q=-0.0 size=   12325kB time=00:00:08.42 bitrate=11989.9kbits/s speed=0.0624x    frame=  424 fps=3.1 q=-0.0 size=   12325kB time=00:00:08.46 bitrate=11933.2kbits/s speed=0.0624x    frame=  426 fps=3.1 q=-0.0 size=   12325kB time=00:00:08.50 bitrate=11877.1kbits/s speed=0.0624x    frame=  428 fps=3.1 q=-0.0 size=   12325kB time=00:00:08.54 bitrate=11821.4kbits/s speed=0.0624x    frame=  430 fps=3.1 q=-0.0 size=   12325kB time=00:00:08.58 bitrate=11766.3kbits/s speed=0.0623x    frame=  432 fps=3.1 q=-0.0 size=   12325kB time=00:00:08.62 bitrate=11711.7kbits/s speed=0.0623x    frame=  434 fps=3.1 q=-0.0 size=   12673kB time=00:00:08.66 bitrate=11986.6kbits/s speed=0.0624x    frame=  436 fps=3.1 q=-0.0 size=   12673kB time=00:00:08.70 bitrate=11931.5kbits/s speed=0.0624x    frame=  438 fps=3.1 q=-0.0 size=   12673kB time=00:00:08.74 bitrate=11876.9kbits/s speed=0.0624x    frame=  440 fps=3.1 q=-0.0 size=   12673kB time=00:00:08.78 bitrate=11822.8kbits/s speed=0.0624x    frame=  442 fps=3.1 q=-0.0 size=   12673kB time=00:00:08.82 bitrate=11769.2kbits/s speed=0.0624x    frame=  444 fps=3.1 q=-0.0 size=   12673kB time=00:00:08.86 bitrate=11716.1kbits/s speed=0.0624x    frame=  446 fps=3.1 q=-0.0 size=   13038kB time=00:00:08.90 bitrate=11999.2kbits/s speed=0.0624x    frame=  448 fps=3.1 q=-0.0 size=   13038kB time=00:00:08.94 bitrate=11945.5kbits/s speed=0.0624x    frame=  450 fps=3.1 q=-0.0 size=   13038kB time=00:00:08.98 bitrate=11892.3kbits/s speed=0.0624x    frame=  452 fps=3.1 q=-0.0 size=   13038kB time=00:00:09.02 bitrate=11839.6kbits/s speed=0.0624x    frame=  454 fps=3.1 q=-0.0 size=   13038kB time=00:00:09.06 bitrate=11787.3kbits/s speed=0.0624x    frame=  456 fps=3.1 q=-0.0 size=   13038kB time=00:00:09.10 bitrate=11735.5kbits/s speed=0.0624x    frame=  458 fps=3.1 q=-0.0 size=   13383kB time=00:00:09.14 bitrate=11993.8kbits/s speed=0.0624x    frame=  460 fps=3.1 q=-0.0 size=   13383kB time=00:00:09.18 bitrate=11941.5kbits/s speed=0.0624x    frame=  462 fps=3.1 q=-0.0 size=   13383kB time=00:00:09.22 bitrate=11889.7kbits/s speed=0.0624x    frame=  464 fps=3.1 q=-0.0 size=   13383kB time=00:00:09.26 bitrate=11838.4kbits/s speed=0.0624x    frame=  466 fps=3.1 q=-0.0 size=   13383kB time=00:00:09.30 bitrate=11787.4kbits/s speed=0.0624x    frame=  468 fps=3.1 q=-0.0 size=   13383kB time=00:00:09.34 bitrate=11737.0kbits/s speed=0.0623x    frame=  470 fps=3.1 q=-0.0 size=   13751kB time=00:00:09.38 bitrate=12008.0kbits/s speed=0.0623x    frame=  472 fps=3.1 q=-0.0 size=   13751kB time=00:00:09.42 bitrate=11957.1kbits/s speed=0.0623x    frame=  474 fps=3.1 q=-0.0 size=   13751kB time=00:00:09.46 bitrate=11906.5kbits/s speed=0.0623x    frame=  476 fps=3.1 q=-0.0 size=   13751kB time=00:00:09.50 bitrate=11856.4kbits/s speed=0.0623x    frame=  478 fps=3.1 q=-0.0 size=   13751kB time=00:00:09.54 bitrate=11806.7kbits/s speed=0.0623x    frame=  480 fps=3.1 q=-0.0 size=   13751kB time=00:00:09.58 bitrate=11757.4kbits/s speed=0.0623x    frame=  482 fps=3.1 q=-0.0 size=   14083kB time=00:00:09.62 bitrate=11991.4kbits/s speed=0.0624x    frame=  484 fps=3.1 q=-0.0 size=   14083kB time=00:00:09.66 bitrate=11941.8kbits/s speed=0.0624x    frame=  486 fps=3.1 q=-0.0 size=   14083kB time=00:00:09.70 bitrate=11892.6kbits/s speed=0.0623x    frame=  488 fps=3.1 q=-0.0 size=   14083kB time=00:00:09.74 bitrate=11843.7kbits/s speed=0.0623x    frame=  490 fps=3.1 q=-0.0 size=   14083kB time=00:00:09.78 bitrate=11795.3kbits/s speed=0.0623x    frame=  492 fps=3.1 q=-0.0 size=   14083kB time=00:00:09.82 bitrate=11747.2kbits/s speed=0.0623x    frame=  494 fps=3.1 q=-0.0 size=   14444kB time=00:00:09.86 bitrate=11999.0kbits/s speed=0.0624x    frame=  496 fps=3.1 q=-0.0 size=   14444kB time=00:00:09.90 bitrate=11950.5kbits/s speed=0.0624x    frame=  498 fps=3.1 q=-0.0 size=   14444kB time=00:00:09.94 bitrate=11902.4kbits/s speed=0.0624x    frame=  500 fps=3.1 q=-0.0 size=   14444kB time=00:00:09.98 bitrate=11854.7kbits/s speed=0.0623x    frame=  500 fps=3.1 q=-0.0 Lsize=   14704kB time=00:00:09.98 bitrate=12068.8kbits/s speed=0.0622x    
video:14695kB audio:0kB subtitle:0kB other streams:0kB global headers:3kB muxing overhead: 0.064189%
bench: utime=146.656s
bench: maxrss=273444kB
